# xmcd
#
# Track frame offsets:
#	150
#	13410
#	22922
#	34900
#	72047
#	91245
#	113217
#	131792
#	149647
#	168492
#	188305
#	199352
#	225490
#	242175
#	250270
#	265662
#	283202
#	298012
#
# Disc length: 4211 seconds
#
# Revision: 5
# Processed by: cddbd v1.5.1PL0 Copyright (c) Steve Scherf et al.
# Submitted via: audiograbber 1.83.01
#
DISCID=0c107112
DTITLE=Janis Joplin - 18 Essential Songs
DYEAR=1995
DGENRE=Blues
TTITLE0=Trouble In Mind
TTITLE1=Down On Me
TTITLE2=Bye Bye Baby
TTITLE3=Ball And Chain
TTITLE4=Piece Of My Heart
TTITLE5=I Need A Man To Love
TTITLE6=Summertime
TTITLE7=Try (Just A Little Bit Harder)
TTITLE8=One Good Man
TTITLE9=Kozmic Blues
TTITLE10=Raise Your Hand
TTITLE11=Tell Mama
TTITLE12=Move Over
TTITLE13=Mercedes Benz
TTITLE14=Get It While You Can
TTITLE15=Half Moon
TTITLE16=Trust Me
TTITLE17=Me And Bobby McGee
EXTD=
EXTT0=
EXTT1=
EXTT2=
EXTT3=
EXTT4=
EXTT5=
EXTT6=
EXTT7=
EXTT8=
EXTT9=
EXTT10=
EXTT11=
EXTT12=
EXTT13=
EXTT14=
EXTT15=
EXTT16=
EXTT17=
PLAYORDER=
